<svg width="114" height="10" viewBox="0 0 114 10" fill="none" xmlns="http://www.w3.org/2000/svg">
<path d="M1.40137 4.59082C1.40137 5.11491 1.49479 5.60254 1.68164 6.05371C1.86849 6.50488 2.11686 6.89681 2.42676 7.22949C2.74121 7.56217 3.10579 7.82422 3.52051 8.01562C3.93522 8.20703 4.37272 8.30273 4.83301 8.30273C5.28874 8.30273 5.72168 8.20703 6.13184 8.01562C6.54199 7.82422 6.9043 7.56217 7.21875 7.22949C7.53776 6.89681 7.79069 6.50488 7.97754 6.05371C8.16439 5.60254 8.25781 5.11491 8.25781 4.59082C8.25781 4.06673 8.16439 3.5791 7.97754 3.12793C7.79069 2.67676 7.53776 2.28483 7.21875 1.95215C6.9043 1.61947 6.54199 1.35742 6.13184 1.16602C5.72168 0.974609 5.28874 0.878906 4.83301 0.878906C4.37728 0.878906 3.93978 0.974609 3.52051 1.16602C3.10579 1.35742 2.74121 1.61947 2.42676 1.95215C2.11686 2.28483 1.86849 2.67676 1.68164 3.12793C1.49479 3.5791 1.40137 4.06673 1.40137 4.59082ZM3.5 4.59082C3.5 4.83236 3.53646 5.05111 3.60938 5.24707C3.68685 5.44303 3.78711 5.61165 3.91016 5.75293C4.03776 5.89421 4.18132 6.00358 4.34082 6.08105C4.50033 6.15853 4.66439 6.19727 4.83301 6.19727C5.18848 6.19727 5.45508 6.11979 5.63281 5.96484C5.8151 5.80534 5.94499 5.60482 6.02246 5.36328H6.86328C6.80859 5.57747 6.72201 5.78027 6.60352 5.97168C6.48503 6.16309 6.33919 6.33398 6.16602 6.48438C5.99284 6.63021 5.79915 6.7487 5.58496 6.83984C5.37077 6.92643 5.1429 6.96973 4.90137 6.96973C4.62337 6.96973 4.35221 6.91048 4.08789 6.79199C3.82812 6.66895 3.59798 6.50033 3.39746 6.28613C3.19694 6.07194 3.03516 5.82129 2.91211 5.53418C2.78906 5.24251 2.72754 4.92806 2.72754 4.59082C2.72754 4.25358 2.78906 3.94141 2.91211 3.6543C3.03516 3.36263 3.19694 3.1097 3.39746 2.89551C3.59798 2.68132 3.82812 2.51497 4.08789 2.39648C4.34766 2.27344 4.61882 2.21191 4.90137 2.21191C5.1429 2.21191 5.37077 2.25749 5.58496 2.34863C5.79915 2.43522 5.99284 2.55371 6.16602 2.7041C6.33919 2.84993 6.48275 3.02083 6.59668 3.2168C6.71517 3.41276 6.80404 3.61328 6.86328 3.81836H6.02246C5.94954 3.57682 5.81966 3.3763 5.63281 3.2168C5.45052 3.05729 5.18392 2.97754 4.83301 2.97754C4.66439 2.97754 4.50033 3.01855 4.34082 3.10059C4.18132 3.17806 4.03776 3.28743 3.91016 3.42871C3.78711 3.56999 3.68685 3.73861 3.60938 3.93457C3.53646 4.13053 3.5 4.34928 3.5 4.59082ZM9.09863 4.59082C9.09863 5.22428 8.9847 5.81217 8.75684 6.35449C8.52897 6.89681 8.22135 7.37077 7.83398 7.77637C7.44661 8.18197 6.99316 8.4987 6.47363 8.72656C5.95866 8.95443 5.41178 9.06836 4.83301 9.06836C4.25423 9.06836 3.70508 8.95443 3.18555 8.72656C2.66602 8.4987 2.21257 8.18197 1.8252 7.77637C1.43783 7.37077 1.13021 6.89681 0.902344 6.35449C0.674479 5.81217 0.560547 5.22428 0.560547 4.59082C0.560547 3.96647 0.674479 3.38086 0.902344 2.83398C1.13021 2.28711 1.43783 1.81087 1.8252 1.40527C2.21257 0.999674 2.66602 0.682943 3.18555 0.455078C3.70508 0.227214 4.25423 0.113281 4.83301 0.113281C5.41178 0.113281 5.95866 0.227214 6.47363 0.455078C6.99316 0.682943 7.44661 0.999674 7.83398 1.40527C8.22135 1.81087 8.52897 2.28711 8.75684 2.83398C8.9847 3.38086 9.09863 3.96647 9.09863 4.59082ZM15.613 6.83301H11.9763L11.1355 9H9.94602L13.3093 0.181641H14.2868L17.6433 9H16.4538L15.613 6.83301ZM12.3249 5.84863H15.2644L13.7946 2L12.3249 5.84863ZM21.3549 3.61328C21.1134 3.61328 20.8764 3.66797 20.644 3.77734C20.4161 3.88216 20.2133 4.03255 20.0356 4.22852C19.8579 4.42448 19.7166 4.65918 19.6118 4.93262C19.5115 5.20605 19.4614 5.51139 19.4614 5.84863C19.4614 6.18587 19.5115 6.49349 19.6118 6.77148C19.7166 7.04492 19.8579 7.27962 20.0356 7.47559C20.2133 7.67155 20.4161 7.82422 20.644 7.93359C20.8764 8.03841 21.1134 8.09082 21.3549 8.09082C21.56 8.09082 21.7537 8.05436 21.936 7.98145C22.1183 7.90397 22.2801 7.80599 22.4213 7.6875C22.5672 7.56445 22.6902 7.42318 22.7905 7.26367C22.8953 7.10417 22.9773 6.93555 23.0366 6.75781H24.0825C24.0095 7.07682 23.8933 7.3776 23.7338 7.66016C23.5743 7.93815 23.3761 8.18197 23.1391 8.3916C22.9021 8.60124 22.631 8.76758 22.3256 8.89062C22.0248 9.00911 21.7013 9.06836 21.3549 9.06836C20.9539 9.06836 20.5733 8.99089 20.2133 8.83594C19.8533 8.67643 19.5388 8.4554 19.27 8.17285C19.0056 7.88574 18.796 7.54622 18.6411 7.1543C18.4907 6.76237 18.4155 6.32715 18.4155 5.84863C18.4155 5.37467 18.4907 4.94173 18.6411 4.5498C18.796 4.15788 19.0056 3.82064 19.27 3.53809C19.5388 3.25098 19.8533 3.02767 20.2133 2.86816C20.5733 2.70866 20.9539 2.62891 21.3549 2.62891C21.7013 2.62891 22.0248 2.69043 22.3256 2.81348C22.631 2.93197 22.9021 3.09831 23.1391 3.3125C23.3761 3.52214 23.5743 3.76595 23.7338 4.04395C23.8933 4.32194 24.0095 4.62044 24.0825 4.93945H23.0366C22.9819 4.76172 22.9021 4.59538 22.7973 4.44043C22.6925 4.28092 22.5672 4.13965 22.4213 4.0166C22.2801 3.89355 22.1183 3.79557 21.936 3.72266C21.7537 3.64974 21.56 3.61328 21.3549 3.61328ZM28.0675 2.62891C28.4139 2.62891 28.7329 2.68815 29.0246 2.80664C29.3208 2.92057 29.5737 3.07552 29.7834 3.27148C29.993 3.46745 30.1548 3.69759 30.2687 3.96191C30.3872 4.22168 30.4464 4.50195 30.4464 4.80273V9H29.6808L29.4005 8.30273C29.2593 8.45312 29.0998 8.58301 28.922 8.69238C28.7625 8.7972 28.5666 8.88607 28.3341 8.95898C28.1017 9.0319 27.826 9.06836 27.507 9.06836C27.188 9.06836 26.9009 9.02051 26.6457 8.9248C26.3905 8.82454 26.1717 8.68783 25.9894 8.51465C25.8071 8.34147 25.6636 8.14095 25.5588 7.91309C25.4585 7.68522 25.4084 7.44141 25.4084 7.18164C25.4084 6.88086 25.4676 6.60742 25.5861 6.36133C25.7091 6.11523 25.9188 5.90104 26.215 5.71875C26.5158 5.53646 26.9259 5.39746 27.4455 5.30176C27.965 5.2015 28.6167 5.15137 29.4005 5.15137V4.80273C29.4005 4.48372 29.2752 4.20573 29.0246 3.96875C28.7785 3.73177 28.4595 3.61328 28.0675 3.61328C27.6756 3.61328 27.3862 3.69531 27.1994 3.85938C27.0125 4.01888 26.8826 4.23991 26.8097 4.52246H25.6886C25.7251 4.2627 25.8048 4.01888 25.9279 3.79102C26.0509 3.55859 26.2127 3.35579 26.4132 3.18262C26.6138 3.00944 26.8507 2.875 27.1242 2.7793C27.3976 2.67904 27.7121 2.62891 28.0675 2.62891ZM27.507 8.09082C27.785 8.09082 28.0402 8.04753 28.2726 7.96094C28.5096 7.86979 28.7101 7.75586 28.8742 7.61914C29.0382 7.47786 29.1658 7.32064 29.257 7.14746C29.3527 6.97428 29.4005 6.79883 29.4005 6.62109V6.12891C28.7671 6.12891 28.2589 6.15625 27.8761 6.21094C27.4933 6.26107 27.1948 6.33626 26.9806 6.43652C26.771 6.53223 26.632 6.64844 26.5636 6.78516C26.4953 6.91732 26.4611 7.07227 26.4611 7.25C26.4611 7.46419 26.5545 7.65788 26.7414 7.83105C26.9328 8.00423 27.188 8.09082 27.507 8.09082ZM37.0292 5.84863C37.0292 5.51139 36.9745 5.20605 36.8651 4.93262C36.7603 4.65918 36.619 4.42448 36.4413 4.22852C36.2636 4.03255 36.0539 3.88216 35.8124 3.77734C35.5754 3.66797 35.327 3.61328 35.0673 3.61328C34.8075 3.61328 34.5568 3.66797 34.3153 3.77734C34.0783 3.88216 33.871 4.03255 33.6932 4.22852C33.5155 4.42448 33.372 4.65918 33.2626 4.93262C33.1578 5.20605 33.1054 5.51139 33.1054 5.84863C33.1054 6.18587 33.1578 6.49349 33.2626 6.77148C33.372 7.04492 33.5155 7.27962 33.6932 7.47559C33.871 7.67155 34.0783 7.82422 34.3153 7.93359C34.5568 8.03841 34.8075 8.09082 35.0673 8.09082C35.327 8.09082 35.5754 8.03841 35.8124 7.93359C36.0539 7.82422 36.2636 7.67155 36.4413 7.47559C36.619 7.27962 36.7603 7.04492 36.8651 6.77148C36.9745 6.49349 37.0292 6.18587 37.0292 5.84863ZM36.8856 8.30273C36.7443 8.45312 36.5871 8.58301 36.4139 8.69238C36.2544 8.7972 36.0562 8.88607 35.8192 8.95898C35.5868 9.0319 35.3134 9.06836 34.9989 9.06836C34.5979 9.06836 34.2173 8.99089 33.8573 8.83594C33.4973 8.67643 33.1828 8.4554 32.9139 8.17285C32.6496 7.88574 32.44 7.54622 32.285 7.1543C32.1346 6.76237 32.0595 6.32715 32.0595 5.84863C32.0595 5.37467 32.1346 4.94173 32.285 4.5498C32.44 4.15788 32.6496 3.82064 32.9139 3.53809C33.1828 3.25098 33.4973 3.02767 33.8573 2.86816C34.2173 2.70866 34.5979 2.62891 34.9989 2.62891C35.3179 2.62891 35.5936 2.67448 35.8261 2.76562C36.0585 2.85221 36.2544 2.94792 36.4139 3.05273C36.5917 3.17578 36.7489 3.31478 36.8856 3.46973V0.181641H37.9384V9H37.1659L36.8856 8.30273ZM45.2252 7.31836C45.1204 7.54167 44.9882 7.7627 44.8287 7.98145C44.6692 8.19564 44.4824 8.38249 44.2682 8.54199C44.054 8.69694 43.8102 8.82454 43.5367 8.9248C43.2678 9.02051 42.9671 9.06836 42.6344 9.06836C42.2333 9.06836 41.8528 8.99089 41.4928 8.83594C41.1327 8.67643 40.8183 8.4554 40.5494 8.17285C40.2851 7.88574 40.0755 7.54622 39.9205 7.1543C39.7701 6.76237 39.6949 6.32715 39.6949 5.84863C39.6949 5.37467 39.7701 4.94173 39.9205 4.5498C40.0755 4.15788 40.2828 3.82064 40.5426 3.53809C40.8069 3.25098 41.1145 3.02767 41.4654 2.86816C41.8163 2.70866 42.1832 2.62891 42.566 2.62891C42.9488 2.62891 43.3089 2.7041 43.6461 2.85449C43.9879 3.00488 44.2841 3.21908 44.5348 3.49707C44.79 3.77051 44.9905 4.10091 45.1363 4.48828C45.2867 4.87565 45.3619 5.30632 45.3619 5.78027C45.3619 5.87142 45.3574 5.95117 45.3482 6.01953C45.3391 6.08333 45.33 6.13802 45.3209 6.18359C45.3118 6.23828 45.3027 6.29069 45.2936 6.34082H40.816C40.8342 6.56413 40.8958 6.78288 41.0006 6.99707C41.11 7.21126 41.2444 7.39811 41.4039 7.55762C41.568 7.71712 41.7571 7.84701 41.9713 7.94727C42.19 8.04297 42.4111 8.09082 42.6344 8.09082C42.8303 8.09082 43.0035 8.06348 43.1539 8.00879C43.3089 7.94954 43.4501 7.88346 43.5777 7.81055C43.7053 7.73763 43.8102 7.65788 43.8922 7.57129C43.9788 7.48014 44.0494 7.39583 44.1041 7.31836H45.2252ZM42.566 3.61328C42.3518 3.61328 42.1467 3.65885 41.9508 3.75C41.7594 3.84115 41.5839 3.96647 41.4244 4.12598C41.2695 4.28548 41.1373 4.47689 41.0279 4.7002C40.9231 4.9235 40.8525 5.16732 40.816 5.43164H44.2408C44.1679 4.87109 43.9742 4.42904 43.6598 4.10547C43.3499 3.77734 42.9853 3.61328 42.566 3.61328ZM53.264 2.62891C53.542 2.62891 53.8086 2.68815 54.0638 2.80664C54.319 2.92057 54.5446 3.09147 54.7405 3.31934C54.9365 3.54264 55.0892 3.81608 55.1986 4.13965C55.3125 4.45866 55.3695 4.81868 55.3695 5.21973V9H54.3167V5.21973C54.3167 4.68652 54.196 4.28548 53.9544 4.0166C53.7129 3.74772 53.4144 3.61328 53.0589 3.61328C52.7034 3.61328 52.3913 3.75684 52.1224 4.04395C51.8581 4.33105 51.7259 4.72298 51.7259 5.21973V9H50.68V5.21973C50.68 4.68652 50.557 4.28548 50.3109 4.0166C50.0693 3.74772 49.7708 3.61328 49.4154 3.61328C49.2467 3.61328 49.0804 3.65202 48.9163 3.72949C48.7568 3.80697 48.6155 3.91862 48.4925 4.06445C48.3695 4.21029 48.2715 4.38118 48.1986 4.57715C48.1256 4.77311 48.0892 4.9873 48.0892 5.21973V9H47.0364V2.69727H47.8089L48.0892 3.40137C48.194 3.26009 48.3193 3.13477 48.4652 3.02539C48.5973 2.92057 48.7568 2.82943 48.9437 2.75195C49.1305 2.66992 49.3584 2.62891 49.6273 2.62891C49.9463 2.62891 50.2152 2.68815 50.4339 2.80664C50.6527 2.92057 50.8327 3.04818 50.9739 3.18945C51.1426 3.35807 51.277 3.54492 51.3773 3.75C51.5003 3.54492 51.6507 3.35807 51.8284 3.18945C51.9879 3.04818 52.1816 2.92057 52.4095 2.80664C52.6419 2.68815 52.9267 2.62891 53.264 2.62891ZM56.9756 8.37109C56.9756 8.1569 57.0371 7.986 57.1602 7.8584C57.2878 7.73079 57.4587 7.66699 57.6729 7.66699C57.8871 7.66699 58.0557 7.73079 58.1787 7.8584C58.3064 7.986 58.3702 8.1569 58.3702 8.37109C58.3702 8.58529 58.3064 8.75618 58.1787 8.88379C58.0557 9.00684 57.8871 9.06836 57.6729 9.06836C57.4587 9.06836 57.2878 9.00684 57.1602 8.88379C57.0371 8.75618 56.9756 8.58529 56.9756 8.37109ZM61.3845 9H60.2634V0.181641H61.3845V9ZM69.437 1.15918H66.7778V9H65.6567V1.15918H62.9975V0.181641H69.437V1.15918ZM79.3075 8.02246V9H73.8456V8.15918L77.3456 4.31055C77.5051 4.14193 77.6464 3.96419 77.7695 3.77734C77.8743 3.61784 77.97 3.43327 78.0566 3.22363C78.1432 3.014 78.1864 2.79297 78.1864 2.56055C78.1864 2.14128 78.0406 1.79264 77.7489 1.51465C77.4618 1.2321 77.0722 1.09082 76.58 1.09082C76.0833 1.09082 75.6777 1.24805 75.3632 1.5625C75.0533 1.8724 74.8984 2.27572 74.8984 2.77246H73.7773C73.7773 2.40788 73.8456 2.06152 73.9823 1.7334C74.1236 1.40527 74.3196 1.12272 74.5702 0.885742C74.8254 0.648763 75.1217 0.461914 75.4589 0.325195C75.8007 0.183919 76.1744 0.113281 76.58 0.113281C76.981 0.113281 77.3479 0.179362 77.6806 0.311523C78.0178 0.439128 78.3049 0.614583 78.5419 0.837891C78.7789 1.0612 78.9657 1.32096 79.1025 1.61719C79.2392 1.90885 79.3075 2.22331 79.3075 2.56055C79.3075 2.87956 79.2437 3.1849 79.1161 3.47656C78.9931 3.76367 78.8564 4.01432 78.706 4.22852C78.5374 4.47917 78.3414 4.71615 78.1181 4.93945L75.3154 8.02246H79.3075ZM81.8366 4.59082C81.8366 5.18783 81.9004 5.70508 82.028 6.14258C82.1601 6.58008 82.3333 6.94466 82.5475 7.23633C82.7617 7.52344 83.0055 7.73763 83.2789 7.87891C83.5569 8.02018 83.8441 8.09082 84.1403 8.09082C84.4411 8.09082 84.7282 8.02018 85.0016 7.87891C85.2796 7.73763 85.5257 7.52344 85.7399 7.23633C85.9541 6.94466 86.125 6.58008 86.2526 6.14258C86.3847 5.70508 86.4508 5.18783 86.4508 4.59082C86.4508 3.99382 86.3847 3.47656 86.2526 3.03906C86.125 2.59701 85.9541 2.23242 85.7399 1.94531C85.5257 1.65365 85.2796 1.43945 85.0016 1.30273C84.7282 1.16146 84.4411 1.09082 84.1403 1.09082C83.8395 1.09082 83.5524 1.16146 83.2789 1.30273C83.0055 1.43945 82.7617 1.65365 82.5475 1.94531C82.3333 2.23242 82.1601 2.59701 82.028 3.03906C81.9004 3.47656 81.8366 3.99382 81.8366 4.59082ZM87.5719 4.59082C87.5719 5.31087 87.4785 5.94889 87.2916 6.50488C87.1048 7.05632 86.8519 7.52344 86.5329 7.90625C86.2184 8.28906 85.8561 8.57845 85.4459 8.77441C85.0358 8.97038 84.6006 9.06836 84.1403 9.06836C83.6845 9.06836 83.2493 8.97038 82.8346 8.77441C82.4199 8.57845 82.0553 8.28906 81.7409 7.90625C81.431 7.52344 81.1826 7.05632 80.9957 6.50488C80.8089 5.94889 80.7155 5.31087 80.7155 4.59082C80.7155 3.87077 80.8089 3.23275 80.9957 2.67676C81.1826 2.12077 81.431 1.65365 81.7409 1.27539C82.0553 0.892578 82.4199 0.60319 82.8346 0.407227C83.2493 0.211263 83.6845 0.113281 84.1403 0.113281C84.596 0.113281 85.0289 0.211263 85.4391 0.407227C85.8538 0.60319 86.2184 0.892578 86.5329 1.27539C86.8519 1.65365 87.1048 2.12077 87.2916 2.67676C87.4785 3.23275 87.5719 3.87077 87.5719 4.59082ZM94.4281 8.02246V9H88.9662V8.15918L92.4662 4.31055C92.6257 4.14193 92.767 3.96419 92.89 3.77734C92.9948 3.61784 93.0905 3.43327 93.1771 3.22363C93.2637 3.014 93.307 2.79297 93.307 2.56055C93.307 2.14128 93.1612 1.79264 92.8695 1.51465C92.5824 1.2321 92.1927 1.09082 91.7005 1.09082C91.2038 1.09082 90.7982 1.24805 90.4837 1.5625C90.1739 1.8724 90.0189 2.27572 90.0189 2.77246H88.8978C88.8978 2.40788 88.9662 2.06152 89.1029 1.7334C89.2442 1.40527 89.4401 1.12272 89.6908 0.885742C89.946 0.648763 90.2422 0.461914 90.5795 0.325195C90.9212 0.183919 91.2949 0.113281 91.7005 0.113281C92.1016 0.113281 92.4684 0.179362 92.8011 0.311523C93.1384 0.439128 93.4255 0.614583 93.6625 0.837891C93.8994 1.0612 94.0863 1.32096 94.223 1.61719C94.3597 1.90885 94.4281 2.22331 94.4281 2.56055C94.4281 2.87956 94.3643 3.1849 94.2367 3.47656C94.1136 3.76367 93.9769 4.01432 93.8265 4.22852C93.6579 4.47917 93.4619 4.71615 93.2386 4.93945L90.4359 8.02246H94.4281ZM96.9571 4.59082C96.9571 5.18783 97.0209 5.70508 97.1485 6.14258C97.2807 6.58008 97.4539 6.94466 97.668 7.23633C97.8822 7.52344 98.1261 7.73763 98.3995 7.87891C98.6775 8.02018 98.9646 8.09082 99.2608 8.09082C99.5616 8.09082 99.8487 8.02018 100.122 7.87891C100.4 7.73763 100.646 7.52344 100.86 7.23633C101.075 6.94466 101.246 6.58008 101.373 6.14258C101.505 5.70508 101.571 5.18783 101.571 4.59082C101.571 3.99382 101.505 3.47656 101.373 3.03906C101.246 2.59701 101.075 2.23242 100.86 1.94531C100.646 1.65365 100.4 1.43945 100.122 1.30273C99.8487 1.16146 99.5616 1.09082 99.2608 1.09082C98.96 1.09082 98.6729 1.16146 98.3995 1.30273C98.1261 1.43945 97.8822 1.65365 97.668 1.94531C97.4539 2.23242 97.2807 2.59701 97.1485 3.03906C97.0209 3.47656 96.9571 3.99382 96.9571 4.59082ZM102.692 4.59082C102.692 5.31087 102.599 5.94889 102.412 6.50488C102.225 7.05632 101.972 7.52344 101.653 7.90625C101.339 8.28906 100.977 8.57845 100.566 8.77441C100.156 8.97038 99.7211 9.06836 99.2608 9.06836C98.8051 9.06836 98.3699 8.97038 97.9552 8.77441C97.5404 8.57845 97.1759 8.28906 96.8614 7.90625C96.5515 7.52344 96.3031 7.05632 96.1163 6.50488C95.9294 5.94889 95.836 5.31087 95.836 4.59082C95.836 3.87077 95.9294 3.23275 96.1163 2.67676C96.3031 2.12077 96.5515 1.65365 96.8614 1.27539C97.1759 0.892578 97.5404 0.60319 97.9552 0.407227C98.3699 0.211263 98.8051 0.113281 99.2608 0.113281C99.7165 0.113281 100.149 0.211263 100.56 0.407227C100.974 0.60319 101.339 0.892578 101.653 1.27539C101.972 1.65365 102.225 2.12077 102.412 2.67676C102.599 3.23275 102.692 3.87077 102.692 4.59082ZM111.715 3.68164H108.708V9H107.655V2.69727H111.715V3.68164ZM112.071 8.37109C112.071 8.1569 112.132 7.986 112.255 7.8584C112.383 7.73079 112.554 7.66699 112.768 7.66699C112.982 7.66699 113.151 7.73079 113.274 7.8584C113.401 7.986 113.465 8.1569 113.465 8.37109C113.465 8.58529 113.401 8.75618 113.274 8.88379C113.151 9.00684 112.982 9.06836 112.768 9.06836C112.554 9.06836 112.383 9.00684 112.255 8.88379C112.132 8.75618 112.071 8.58529 112.071 8.37109Z" fill="white" fill-opacity="0.6"/>
</svg>
