<svg width="157" height="39" viewBox="0 0 157 39" fill="none" xmlns="http://www.w3.org/2000/svg">
<path d="M21.5031 9H21.4969C14.6047 9 9 14.6062 9 21.5C9 24.2344 9.88125 26.7687 11.3797 28.8266L9.82188 33.4703L14.6266 31.9344C16.6031 33.2438 18.9609 34 21.5031 34C28.3953 34 34 28.3922 34 21.5C34 14.6078 28.3953 9 21.5031 9ZM28.7766 26.6516C28.475 27.5031 27.2781 28.2094 26.3234 28.4156C25.6703 28.5547 24.8172 28.6656 21.9453 27.475C18.2719 25.9531 15.9062 22.2203 15.7219 21.9781C15.5453 21.7359 14.2375 20.0016 14.2375 18.2078C14.2375 16.4141 15.1484 15.5406 15.5156 15.1656C15.8172 14.8578 16.3156 14.7172 16.7937 14.7172C16.9484 14.7172 17.0875 14.725 17.2125 14.7312C17.5797 14.7469 17.7641 14.7688 18.0063 15.3484C18.3078 16.075 19.0422 17.8688 19.1297 18.0531C19.2188 18.2375 19.3078 18.4875 19.1828 18.7297C19.0656 18.9797 18.9625 19.0906 18.7781 19.3031C18.5938 19.5156 18.4187 19.6781 18.2344 19.9062C18.0656 20.1047 17.875 20.3172 18.0875 20.6844C18.3 21.0437 19.0344 22.2422 20.1156 23.2047C21.5109 24.4469 22.6422 24.8438 23.0469 25.0125C23.3484 25.1375 23.7078 25.1078 23.9281 24.8734C24.2078 24.5719 24.5531 24.0719 24.9047 23.5797C25.1547 23.2266 25.4703 23.1828 25.8016 23.3078C26.1391 23.425 27.925 24.3078 28.2922 24.4906C28.6594 24.675 28.9016 24.7625 28.9906 24.9172C29.0781 25.0719 29.0781 25.7984 28.7766 26.6516Z" fill="white"/>
<path d="M86.1875 9H76.8125C72.4984 9 69 12.4984 69 16.8125V26.1875C69 30.5016 72.4984 34 76.8125 34H86.1875C90.5016 34 94 30.5016 94 26.1875V16.8125C94 12.4984 90.5016 9 86.1875 9ZM91.6562 26.1875C91.6562 29.2031 89.2031 31.6562 86.1875 31.6562H76.8125C73.7969 31.6562 71.3438 29.2031 71.3438 26.1875V16.8125C71.3438 13.7969 73.7969 11.3438 76.8125 11.3438H86.1875C89.2031 11.3438 91.6562 13.7969 91.6562 16.8125V26.1875Z" fill="white"/>
<path d="M81.5 15.25C78.0484 15.25 75.25 18.0484 75.25 21.5C75.25 24.9516 78.0484 27.75 81.5 27.75C84.9516 27.75 87.75 24.9516 87.75 21.5C87.75 18.0484 84.9516 15.25 81.5 15.25ZM81.5 25.4062C79.3469 25.4062 77.5938 23.6531 77.5938 21.5C77.5938 19.3453 79.3469 17.5938 81.5 17.5938C83.6531 17.5938 85.4062 19.3453 85.4062 21.5C85.4062 23.6531 83.6531 25.4062 81.5 25.4062Z" fill="white"/>
<path d="M88.2188 15.6139C88.6788 15.6139 89.0516 15.241 89.0516 14.7811C89.0516 14.3211 88.6788 13.9482 88.2188 13.9482C87.7588 13.9482 87.386 14.3211 87.386 14.7811C87.386 15.241 87.7588 15.6139 88.2188 15.6139Z" fill="white"/>
<path d="M152.759 27.7408C152.687 27.6193 152.238 26.6438 150.078 24.6389C147.816 22.5395 148.12 22.8804 150.844 19.2503C152.503 17.0396 153.166 15.6895 152.958 15.1123C152.761 14.5621 151.541 14.7073 151.541 14.7073L147.484 14.7309C147.484 14.7309 147.183 14.6904 146.959 14.8237C146.741 14.9553 146.601 15.2591 146.601 15.2591C146.601 15.2591 145.958 16.9704 145.101 18.4251C143.293 21.4949 142.569 21.6569 142.274 21.4662C141.587 21.0224 141.759 19.6807 141.759 18.7289C141.759 15.7536 142.21 14.5132 140.88 14.1925C140.438 14.0862 140.114 14.0153 138.985 14.0035C137.537 13.9883 136.31 14.0086 135.616 14.3478C135.154 14.5739 134.798 15.0785 135.016 15.1072C135.284 15.1427 135.892 15.2709 136.214 15.7097C136.631 16.2751 136.616 17.5475 136.616 17.5475C136.616 17.5475 136.855 21.0494 136.057 21.4848C135.508 21.7835 134.757 21.1742 133.146 18.388C132.321 16.9619 131.696 15.384 131.696 15.384C131.696 15.384 131.576 15.0903 131.362 14.9334C131.102 14.7427 130.738 14.6819 130.738 14.6819L126.88 14.7056C126.88 14.7056 126.301 14.7224 126.088 14.9739C125.899 15.1984 126.073 15.6608 126.073 15.6608C126.073 15.6608 129.094 22.7269 132.513 26.2894C135.65 29.555 139.211 29.3407 139.211 29.3407H140.824C140.824 29.3407 141.312 29.2867 141.56 29.0183C141.79 28.7719 141.781 28.3095 141.781 28.3095C141.781 28.3095 141.749 26.1443 142.755 25.8253C143.746 25.5114 145.018 27.918 146.367 28.8445C147.386 29.5449 148.161 29.3913 148.161 29.3913L151.767 29.3407C151.767 29.3407 153.654 29.2242 152.759 27.7408Z" fill="white"/>
</svg>
