<svg width="40" height="39" viewBox="0 0 40 39" fill="none" xmlns="http://www.w3.org/2000/svg">
<path d="M27.1875 9H17.8125C13.4984 9 10 12.4984 10 16.8125V26.1875C10 30.5016 13.4984 34 17.8125 34H27.1875C31.5016 34 35 30.5016 35 26.1875V16.8125C35 12.4984 31.5016 9 27.1875 9ZM32.6562 26.1875C32.6562 29.2031 30.2031 31.6562 27.1875 31.6562H17.8125C14.7969 31.6562 12.3438 29.2031 12.3438 26.1875V16.8125C12.3438 13.7969 14.7969 11.3438 17.8125 11.3438H27.1875C30.2031 11.3438 32.6562 13.7969 32.6562 16.8125V26.1875Z" fill="white"/>
<path d="M22.5 15.25C19.0484 15.25 16.25 18.0484 16.25 21.5C16.25 24.9516 19.0484 27.75 22.5 27.75C25.9516 27.75 28.75 24.9516 28.75 21.5C28.75 18.0484 25.9516 15.25 22.5 15.25ZM22.5 25.4062C20.3469 25.4062 18.5938 23.6531 18.5938 21.5C18.5938 19.3453 20.3469 17.5938 22.5 17.5938C24.6531 17.5938 26.4062 19.3453 26.4062 21.5C26.4062 23.6531 24.6531 25.4062 22.5 25.4062Z" fill="white"/>
<path d="M29.2188 15.6139C29.6788 15.6139 30.0516 15.241 30.0516 14.7811C30.0516 14.3211 29.6788 13.9482 29.2188 13.9482C28.7588 13.9482 28.386 14.3211 28.386 14.7811C28.386 15.241 28.7588 15.6139 29.2188 15.6139Z" fill="white"/>
</svg>
