<svg width="210" height="59" viewBox="0 0 210 59" fill="none" xmlns="http://www.w3.org/2000/svg">
<path d="M5.65111 47.1319V42.0011H5.66225C5.66225 39.35 6.63379 36.8586 8.39594 34.9856L22.3177 20.1881C23.9574 18.4453 26.627 18.4453 28.2667 20.1881L35.6104 27.9967L39.6051 23.7506L32.2587 15.9421C28.417 11.8588 22.1646 11.8588 18.3202 15.9421L4.3984 30.7396C1.65358 33.657 0.108568 37.5095 0.0194865 41.6224L0 41.6431V47.1348C0 53.6888 4.99692 59 11.163 59H24.5893V52.9964H11.163C8.12312 52.9935 5.65111 50.363 5.65111 47.1319Z" fill="#3A5BA7"/>
<path d="M44.3432 0H31.0032V6.00358H44.3432C47.3831 6.00358 49.8579 8.63402 49.8579 11.8651V15.9129H49.8468C49.8468 18.564 48.8752 21.0554 47.1131 22.9284L33.1913 37.7258C31.5516 39.4685 28.882 39.4685 27.2423 37.7258L19.8959 29.9173L15.9011 34.1633L23.2476 41.9718C25.1684 44.0134 27.6933 45.0342 30.2154 45.0342C32.7403 45.0342 35.2624 44.0134 37.1833 41.9718L51.105 27.1744C53.9362 24.1652 55.4951 20.1678 55.4951 15.9129H55.47L55.5062 15.8744V11.8651C55.5062 5.31416 50.5093 0 44.3432 0Z" fill="#3A5BA7"/>
<path d="M5.65113 11.8652C5.65113 8.63405 8.12594 6.00359 11.1659 6.00359H24.5922V0H11.1631C4.99694 0 0 5.31121 0 11.8652V28.5178L5.64835 22.5142V11.8652H5.65113Z" fill="white"/>
<path d="M49.8579 47.132C49.8579 50.3632 47.3831 52.9936 44.3432 52.9936H31.0032V58.9973H44.3432C50.5093 58.9973 55.5062 53.686 55.5062 47.132V30.4468L49.8579 36.4504V47.132Z" fill="white"/>
<path d="M80.3016 35.4351H71.9335L70.3383 39.539H66.0652L74.0965 20.3862H78.2165L86.2728 39.539H81.8967L80.3016 35.4351ZM78.9876 32.0708L76.1314 24.7387L73.2725 32.0708H78.9876Z" fill="white"/>
<path d="M90.4569 38.7881C89.2821 38.1401 88.3634 37.2435 87.7037 36.0925C87.0439 34.9444 86.7126 33.6395 86.7126 32.1807C86.7126 30.7219 87.0439 29.417 87.7037 28.269C88.3634 27.1209 89.2821 26.2213 90.4569 25.5733C91.6316 24.9253 92.9567 24.6028 94.4349 24.6028C95.8936 24.6028 97.1686 24.9283 98.2571 25.5733C99.3455 26.2213 100.139 27.1475 100.637 28.3518L97.5221 30.1302C96.8011 28.7809 95.7628 28.1062 94.4071 28.1062C93.3604 28.1062 92.4918 28.4702 91.807 29.201C91.1194 29.9319 90.777 30.9261 90.777 32.1837C90.777 33.4412 91.1194 34.4355 91.807 35.1663C92.4918 35.8972 93.3604 36.2612 94.4071 36.2612C95.7795 36.2612 96.8178 35.5865 97.5221 34.2372L100.637 36.0422C100.139 37.211 99.3455 38.1223 98.2571 38.7792C97.1658 39.4361 95.8936 39.7646 94.4349 39.7646C92.9567 39.7587 91.6316 39.4361 90.4569 38.7881Z" fill="white"/>
<path d="M113.484 26.2272C114.634 27.3131 115.21 28.9494 115.21 31.139V39.5392H111.452V37.7047C110.698 39.0717 109.289 39.7582 107.229 39.7582C106.166 39.7582 105.242 39.5658 104.462 39.1841C103.683 38.7995 103.084 38.2728 102.672 37.5982C102.26 36.9236 102.054 36.1572 102.054 35.2991C102.054 33.9321 102.539 32.8551 103.507 32.071C104.476 31.2869 105.974 30.8934 108 30.8934H111.193C111.193 29.9643 110.926 29.2482 110.394 28.7452C109.863 28.2452 109.064 27.9937 108 27.9937C107.263 27.9937 106.536 28.1179 105.826 28.3635C105.114 28.6091 104.51 28.9435 104.011 29.3636L102.569 26.3811C103.324 25.8159 104.228 25.378 105.286 25.0673C106.341 24.7567 107.427 24.6028 108.543 24.6028C110.687 24.5998 112.335 25.1443 113.484 26.2272ZM110.06 36.3791C110.592 36.0418 110.971 35.5447 111.193 34.8878V33.3818H108.44C106.792 33.3818 105.968 33.9558 105.968 35.1068C105.968 35.6542 106.169 36.0862 106.572 36.4058C106.976 36.7253 107.53 36.8851 108.234 36.8851C108.919 36.8851 109.529 36.7164 110.06 36.3791Z" fill="white"/>
<path d="M133.102 19.2385V39.5425H129.266V37.8471C128.269 39.1253 126.83 39.7615 124.94 39.7615C123.634 39.7615 122.457 39.4508 121.399 38.8324C120.344 38.214 119.514 37.3263 118.916 36.1782C118.314 35.0302 118.014 33.6987 118.014 32.1837C118.014 30.6688 118.314 29.3373 118.916 28.1892C119.517 27.0412 120.344 26.1564 121.399 25.5351C122.454 24.9167 123.634 24.606 124.94 24.606C126.708 24.606 128.088 25.1978 129.085 26.3843V19.2415H133.102V19.2385ZM128.158 35.1485C128.829 34.4088 129.163 33.4205 129.163 32.1808C129.163 30.941 128.829 29.9498 128.158 29.213C127.49 28.4733 126.649 28.1034 125.636 28.1034C124.606 28.1034 123.757 28.4733 123.086 29.213C122.418 29.9527 122.081 30.941 122.081 32.1808C122.081 33.4205 122.415 34.4118 123.086 35.1485C123.757 35.8883 124.606 36.2581 125.636 36.2581C126.646 36.2581 127.49 35.8883 128.158 35.1485Z" fill="white"/>
<path d="M150.297 33.3849H139.819C140.008 34.2962 140.454 35.0182 141.158 35.5479C141.863 36.0775 142.737 36.3408 143.783 36.3408C144.504 36.3408 145.145 36.2284 145.701 35.9976C146.258 35.7698 146.779 35.4088 147.258 34.9176L149.396 37.3794C148.09 38.9654 146.186 39.7614 143.68 39.7614C142.119 39.7614 140.738 39.4388 139.535 38.7908C138.333 38.1428 137.406 37.2463 136.754 36.0953C136.103 34.9472 135.777 33.6423 135.777 32.1836C135.777 30.7426 136.1 29.4436 136.743 28.2837C137.386 27.1238 138.269 26.2213 139.393 25.5733C140.518 24.9253 141.773 24.6028 143.165 24.6028C144.521 24.6028 145.749 24.9135 146.846 25.5319C147.945 26.1533 148.805 27.0409 149.432 28.2008C150.058 29.3607 150.373 30.7041 150.373 32.2368C150.375 32.2901 150.348 32.6718 150.297 33.3849ZM140.899 28.6506C140.281 29.198 139.903 29.9466 139.766 30.8935H146.589C146.453 29.9644 146.074 29.2187 145.456 28.6624C144.838 28.1062 144.084 27.828 143.19 27.828C142.283 27.828 141.517 28.1032 140.899 28.6506Z" fill="white"/>
<path d="M174.92 26.2272C175.942 27.3131 176.451 28.9405 176.451 31.1123V39.5392H172.434V31.7692C172.434 30.6034 172.206 29.7305 171.752 29.1565C171.298 28.5825 170.65 28.2955 169.809 28.2955C168.865 28.2955 168.119 28.621 167.568 29.266C167.02 29.914 166.744 30.8756 166.744 32.1539V39.5422H162.727V31.7692C162.727 29.4524 161.853 28.2955 160.102 28.2955C159.175 28.2955 158.437 28.621 157.889 29.266C157.34 29.914 157.065 30.8756 157.065 32.1539V39.5422H153.048V24.8218H156.884V26.5172C157.399 25.8988 158.028 25.4224 158.777 25.094C159.523 24.7655 160.344 24.6028 161.235 24.6028C162.212 24.6028 163.097 24.807 163.885 25.2182C164.676 25.6295 165.31 26.2272 165.789 27.0113C166.357 26.245 167.073 25.6532 167.938 25.233C168.804 24.8129 169.753 24.6028 170.783 24.6028C172.521 24.5998 173.899 25.1443 174.92 26.2272Z" fill="white"/>
<path d="M179.797 38.9919C179.316 38.48 179.076 37.8438 179.076 37.0774C179.076 36.2932 179.316 35.66 179.797 35.1747C180.279 34.6924 180.869 34.4497 181.573 34.4497C182.278 34.4497 182.868 34.6924 183.35 35.1747C183.828 35.657 184.071 36.2932 184.071 37.0774C184.071 37.8438 183.831 38.483 183.35 38.9919C182.868 39.5039 182.278 39.7583 181.573 39.7583C180.872 39.7583 180.279 39.5039 179.797 38.9919Z" fill="#3A5BA7"/>
<path d="M187.085 20.3862H191.256V39.539H187.085V20.3862Z" fill="#3A5BA7"/>
<path d="M199.262 23.9991H193.497V20.3862H209.2V23.9991H203.432V39.5422H199.262V23.9991Z" fill="#3A5BA7"/>
</svg>
