<svg width="210" height="58" viewBox="0 0 210 58" fill="none" xmlns="http://www.w3.org/2000/svg">
<path d="M5.65111 46.3331V41.2893H5.66225C5.66225 38.6831 6.63379 36.2339 8.39594 34.3926L22.3177 19.846C23.9574 18.1327 26.627 18.1327 28.2667 19.846L35.6104 27.5222L39.6051 23.3481L32.2587 15.6719C28.417 11.6579 22.1646 11.6579 18.3202 15.6719L4.3984 30.2186C1.65358 33.0866 0.108568 36.8738 0.0194865 40.917L0 40.9373V46.336C0 52.7788 4.99692 58.0001 11.163 58.0001H24.5893V52.0982H11.163C8.12312 52.0953 5.65111 49.5094 5.65111 46.3331Z" fill="#3A5BA7"/>
<path d="M44.3432 0H31.0032V5.90182H44.3432C47.3831 5.90182 49.8579 8.48769 49.8579 11.664V15.6432H49.8468C49.8468 18.2494 48.8752 20.6985 47.1131 22.5398L33.1913 37.0863C31.5516 38.7996 28.882 38.7996 27.2423 37.0863L19.8959 29.4102L15.9011 33.5842L23.2476 41.2604C25.1684 43.2674 27.6933 44.2709 30.2154 44.2709C32.7403 44.2709 35.2624 43.2674 37.1833 41.2604L51.105 26.7138C53.9362 23.7556 55.4951 19.8259 55.4951 15.6432H55.47L55.5062 15.6054V11.664C55.5062 5.22409 50.5093 0 44.3432 0Z" fill="#3A5BA7"/>
<path d="M5.65113 11.664C5.65113 8.48771 8.12594 5.90184 11.1659 5.90184H24.5922V0H11.1631C4.99694 0 0 5.22119 0 11.664V28.0344L5.64835 22.1326V11.664H5.65113Z" fill="#2E2E33"/>
<path d="M49.8579 46.3331C49.8579 49.5095 47.3831 52.0954 44.3432 52.0954H31.0032V57.9972H44.3432C50.5093 57.9972 55.5062 52.776 55.5062 46.3331V29.9307L49.8579 35.8325V46.3331Z" fill="#2E2E33"/>
<path d="M80.3016 34.8345H71.9335L70.3383 38.8689H66.0652L74.0965 20.0408H78.2165L86.2728 38.8689H81.8967L80.3016 34.8345ZM78.9876 31.5273L76.1314 24.3195L73.2725 31.5273H78.9876Z" fill="#2E2E33"/>
<path d="M90.4569 38.1307C89.2821 37.4937 88.3634 36.6123 87.7037 35.4808C87.0439 34.3521 86.7126 33.0693 86.7126 31.6353C86.7126 30.2012 87.0439 28.9185 87.7037 27.7898C88.3634 26.6612 89.2821 25.7769 90.4569 25.1399C91.6316 24.5029 92.9567 24.1858 94.4349 24.1858C95.8936 24.1858 97.1686 24.5058 98.2571 25.1399C99.3455 25.7769 100.139 26.6874 100.637 27.8713L97.5221 29.6195C96.8011 28.2931 95.7628 27.6298 94.4071 27.6298C93.3604 27.6298 92.4918 27.9876 91.807 28.7061C91.1194 29.4246 90.777 30.402 90.777 31.6382C90.777 32.8745 91.1194 33.8518 91.807 34.5703C92.4918 35.2888 93.3604 35.6466 94.4071 35.6466C95.7795 35.6466 96.8178 34.9834 97.5221 33.6569L100.637 35.4313C100.139 36.5803 99.3455 37.4762 98.2571 38.122C97.1658 38.7677 95.8936 39.0906 94.4349 39.0906C92.9567 39.0848 91.6316 38.7677 90.4569 38.1307Z" fill="#2E2E33"/>
<path d="M113.484 25.7827C114.634 26.8502 115.21 28.4587 115.21 30.6112V38.869H111.452V37.0656C110.698 38.4095 109.289 39.0843 107.229 39.0843C106.166 39.0843 105.242 38.8952 104.462 38.52C103.683 38.1419 103.084 37.6241 102.672 36.9609C102.26 36.2977 102.054 35.5444 102.054 34.7008C102.054 33.357 102.539 32.2982 103.507 31.5274C104.476 30.7566 105.974 30.3698 108 30.3698H111.193C111.193 29.4564 110.926 28.7525 110.394 28.258C109.863 27.7664 109.064 27.5192 108 27.5192C107.263 27.5192 106.536 27.6414 105.826 27.8828C105.114 28.1242 104.51 28.4529 104.011 28.8659L102.569 25.9339C103.324 25.3784 104.228 24.9479 105.286 24.6425C106.341 24.3371 107.427 24.1858 108.543 24.1858C110.687 24.1829 112.335 24.7181 113.484 25.7827ZM110.06 35.7625C110.592 35.4309 110.971 34.9423 111.193 34.2965V32.816H108.44C106.792 32.816 105.968 33.3803 105.968 34.5118C105.968 35.0499 106.169 35.4746 106.572 35.7887C106.976 36.1029 107.53 36.2599 108.234 36.2599C108.919 36.2599 109.529 36.0941 110.06 35.7625Z" fill="#2E2E33"/>
<path d="M133.102 18.9124V38.8722H129.266V37.2055C128.269 38.4621 126.83 39.0875 124.94 39.0875C123.634 39.0875 122.457 38.782 121.399 38.1741C120.344 37.5662 119.514 36.6936 118.916 35.565C118.314 34.4364 118.014 33.1274 118.014 31.6381C118.014 30.1489 118.314 28.8399 118.916 27.7113C119.517 26.5827 120.344 25.713 121.399 25.1022C122.454 24.4942 123.634 24.1888 124.94 24.1888C126.708 24.1888 128.088 24.7706 129.085 25.937V18.9153H133.102V18.9124ZM128.158 34.5527C128.829 33.8255 129.163 32.854 129.163 31.6352C129.163 30.4165 128.829 29.442 128.158 28.7178C127.49 27.9906 126.649 27.627 125.636 27.627C124.606 27.627 123.757 27.9906 123.086 28.7178C122.418 29.4449 122.081 30.4165 122.081 31.6352C122.081 32.854 122.415 33.8284 123.086 34.5527C123.757 35.2799 124.606 35.6435 125.636 35.6435C126.646 35.6435 127.49 35.2799 128.158 34.5527Z" fill="#2E2E33"/>
<path d="M150.297 32.819H139.819C140.008 33.7149 140.454 34.4247 141.158 34.9454C141.863 35.466 142.737 35.7249 143.783 35.7249C144.504 35.7249 145.145 35.6144 145.701 35.3875C146.258 35.1635 146.779 34.8086 147.258 34.3258L149.396 36.7459C148.09 38.305 146.186 39.0874 143.68 39.0874C142.119 39.0874 140.738 38.7704 139.535 38.1334C138.333 37.4963 137.406 36.615 136.754 35.4835C136.103 34.3549 135.777 33.0721 135.777 31.6381C135.777 30.2215 136.1 28.9445 136.743 27.8043C137.386 26.6641 138.269 25.7769 139.393 25.1399C140.518 24.5029 141.773 24.1858 143.165 24.1858C144.521 24.1858 145.749 24.4912 146.846 25.0992C147.945 25.71 148.805 26.5826 149.432 27.7229C150.058 28.8631 150.373 30.1837 150.373 31.6904C150.375 31.7428 150.348 32.118 150.297 32.819ZM140.899 28.165C140.281 28.7031 139.903 29.439 139.766 30.3698H146.589C146.453 29.4565 146.074 28.7235 145.456 28.1766C144.838 27.6298 144.084 27.3564 143.19 27.3564C142.283 27.3564 141.517 27.6269 140.899 28.165Z" fill="#2E2E33"/>
<path d="M174.92 25.7827C175.942 26.8502 176.451 28.45 176.451 30.585V38.8691H172.434V31.2308C172.434 30.0847 172.206 29.2266 171.752 28.6623C171.298 28.0981 170.65 27.8159 169.809 27.8159C168.865 27.8159 168.119 28.1359 167.568 28.77C167.02 29.407 166.744 30.3523 166.744 31.6089V38.872H162.727V31.2308C162.727 28.9532 161.853 27.8159 160.102 27.8159C159.175 27.8159 158.437 28.1359 157.889 28.77C157.34 29.407 157.065 30.3523 157.065 31.6089V38.872H153.048V24.4011H156.884V26.0678C157.399 25.4598 158.028 24.9915 158.777 24.6687C159.523 24.3458 160.344 24.1858 161.235 24.1858C162.212 24.1858 163.097 24.3865 163.885 24.7908C164.676 25.1951 165.31 25.7827 165.789 26.5535C166.357 25.8002 167.073 25.2184 167.938 24.8054C168.804 24.3923 169.753 24.1858 170.783 24.1858C172.521 24.1829 173.899 24.7181 174.92 25.7827Z" fill="#2E2E33"/>
<path d="M179.797 38.331C179.316 37.8277 179.076 37.2023 179.076 36.4489C179.076 35.678 179.316 35.0555 179.797 34.5784C180.279 34.1043 180.869 33.8657 181.573 33.8657C182.278 33.8657 182.868 34.1043 183.35 34.5784C183.828 35.0526 184.071 35.678 184.071 36.4489C184.071 37.2023 183.831 37.8306 183.35 38.331C182.868 38.8342 182.278 39.0844 181.573 39.0844C180.872 39.0844 180.279 38.8342 179.797 38.331Z" fill="#3A5BA7"/>
<path d="M187.085 20.0408H191.256V38.8689H187.085V20.0408Z" fill="#3A5BA7"/>
<path d="M199.262 23.5924H193.497V20.0408H209.2V23.5924H203.432V38.8721H199.262V23.5924V23.5924Z" fill="#3A5BA7"/>
</svg>
