<svg width="39" height="39" viewBox="0 0 39 39" fill="none" xmlns="http://www.w3.org/2000/svg">
<path d="M34.7593 27.7408C34.6868 27.6193 34.2379 26.6438 32.0777 24.6389C29.8163 22.5395 30.1201 22.8804 32.8439 19.2503C34.5028 17.0396 35.1661 15.6895 34.9585 15.1123C34.761 14.5621 33.5409 14.7073 33.5409 14.7073L29.4838 14.7309C29.4838 14.7309 29.1834 14.6904 28.959 14.8237C28.7413 14.9553 28.6012 15.2591 28.6012 15.2591C28.6012 15.2591 27.9582 16.9704 27.1009 18.4251C25.2935 21.4949 24.5695 21.6569 24.2741 21.4662C23.5873 21.0224 23.7594 19.6807 23.7594 18.7289C23.7594 15.7536 24.21 14.5132 22.8802 14.1925C22.438 14.0862 22.114 14.0153 20.985 14.0035C19.537 13.9883 18.3101 14.0086 17.6165 14.3478C17.154 14.5739 16.798 15.0785 17.0157 15.1072C17.284 15.1427 17.8915 15.2709 18.2139 15.7097C18.6307 16.2751 18.6155 17.5475 18.6155 17.5475C18.6155 17.5475 18.8552 21.0494 18.0569 21.4848C17.5085 21.7835 16.7575 21.1742 15.1458 18.388C14.3205 16.9619 13.6961 15.384 13.6961 15.384C13.6961 15.384 13.5763 15.0903 13.362 14.9334C13.1021 14.7427 12.7375 14.6819 12.7375 14.6819L8.87963 14.7056C8.87963 14.7056 8.30077 14.7224 8.08813 14.9739C7.89912 15.1984 8.07294 15.6608 8.07294 15.6608C8.07294 15.6608 11.0938 22.7269 14.5129 26.2894C17.6502 29.555 21.2111 29.3407 21.2111 29.3407H22.8245C22.8245 29.3407 23.3122 29.2867 23.5603 29.0183C23.7898 28.7719 23.7814 28.3095 23.7814 28.3095C23.7814 28.3095 23.7493 26.1443 24.7551 25.8253C25.7457 25.5114 27.0182 27.918 28.3666 28.8445C29.3859 29.5449 30.1606 29.3913 30.1606 29.3913L33.767 29.3407C33.767 29.3407 35.6538 29.2242 34.7593 27.7408Z" fill="white"/>
</svg>
