<svg width="39" height="39" viewBox="0 0 39 39" fill="none" xmlns="http://www.w3.org/2000/svg">
<path d="M21.5031 9H21.4969C14.6047 9 9 14.6062 9 21.5C9 24.2344 9.88125 26.7687 11.3797 28.8266L9.82188 33.4703L14.6266 31.9344C16.6031 33.2438 18.9609 34 21.5031 34C28.3953 34 34 28.3922 34 21.5C34 14.6078 28.3953 9 21.5031 9ZM28.7766 26.6516C28.475 27.5031 27.2781 28.2094 26.3234 28.4156C25.6703 28.5547 24.8172 28.6656 21.9453 27.475C18.2719 25.9531 15.9062 22.2203 15.7219 21.9781C15.5453 21.7359 14.2375 20.0016 14.2375 18.2078C14.2375 16.4141 15.1484 15.5406 15.5156 15.1656C15.8172 14.8578 16.3156 14.7172 16.7937 14.7172C16.9484 14.7172 17.0875 14.725 17.2125 14.7312C17.5797 14.7469 17.7641 14.7688 18.0063 15.3484C18.3078 16.075 19.0422 17.8688 19.1297 18.0531C19.2188 18.2375 19.3078 18.4875 19.1828 18.7297C19.0656 18.9797 18.9625 19.0906 18.7781 19.3031C18.5938 19.5156 18.4187 19.6781 18.2344 19.9062C18.0656 20.1047 17.875 20.3172 18.0875 20.6844C18.3 21.0437 19.0344 22.2422 20.1156 23.2047C21.5109 24.4469 22.6422 24.8438 23.0469 25.0125C23.3484 25.1375 23.7078 25.1078 23.9281 24.8734C24.2078 24.5719 24.5531 24.0719 24.9047 23.5797C25.1547 23.2266 25.4703 23.1828 25.8016 23.3078C26.1391 23.425 27.925 24.3078 28.2922 24.4906C28.6594 24.675 28.9016 24.7625 28.9906 24.9172C29.0781 25.0719 29.0781 25.7984 28.7766 26.6516Z" fill="white"/>
</svg>
